<?xml version="1.0" encoding="utf-8"?>
<!-- Generator: Adobe Illustrator 22.0.1, SVG Export Plug-In . SVG Version: 6.00 Build 0)  -->
<svg version="1.1" id="Capa_1" xmlns="http://www.w3.org/2000/svg" xmlns:xlink="http://www.w3.org/1999/xlink" x="0px" y="0px"
	 viewBox="0 0 30 30" style="enable-background:new 0 0 30 30;" xml:space="preserve">
<g>
	<path d="M29.8,6.3c-0.2-0.2-0.4-0.4-0.7-0.4L10.5,5.1c-0.5,0-1,0.4-1,0.9s0.4,1,0.9,1l17.3,0.7l-3.4,10.6H9.1L6.4,3.4
		C6.3,3.1,6.1,2.8,5.8,2.7L1.3,0.9C0.8,0.8,0.3,1,0.1,1.5s0,1.1,0.5,1.2l4,1.6l2.8,15.2c0.1,0.5,0.5,0.8,0.9,0.8h0.5l-1.1,2.9
		c-0.1,0.2-0.1,0.5,0.1,0.7s0.4,0.3,0.7,0.3h0.7c-0.5,0.5-0.7,1.2-0.7,1.9c0,1.6,1.3,2.9,2.9,2.9s2.9-1.3,2.9-2.9
		c0-0.7-0.3-1.4-0.7-1.9h6.3c-0.5,0.5-0.7,1.2-0.7,1.9c0,1.6,1.3,2.9,2.9,2.9s2.9-1.3,2.9-2.9c0-0.7-0.3-1.4-0.7-1.9H25
		c0.4,0,0.8-0.4,0.8-0.8s-0.4-0.8-0.8-0.8H9.6l0.9-2.4H25c0.4,0,0.8-0.3,0.9-0.7l4-12.5C30,6.8,30,6.5,29.8,6.3z M11.4,27.5
		c-0.7,0-1.3-0.6-1.3-1.3s0.6-1.3,1.3-1.3s1.3,0.6,1.3,1.3S12.1,27.5,11.4,27.5z M22,27.5c-0.7,0-1.3-0.6-1.3-1.3s0.6-1.3,1.3-1.3
		c0.7,0,1.3,0.6,1.3,1.3S22.7,27.5,22,27.5z"/>
</g>
</svg>
